<svg width="32" height="32" viewBox="0 0 32 32" fill="none" xmlns="http://www.w3.org/2000/svg">
<g id="glass-cheers 1" clip-path="url(#clip0_1_3836)">
<path id="Vector" d="M31.067 30.0952L25.123 31.9406C24.7853 32.0456 24.4197 32.0122 24.1067 31.8476C23.7936 31.6831 23.5587 31.4009 23.4537 31.0632C23.3487 30.7255 23.3821 30.3599 23.5466 30.0469C23.7112 29.7338 23.9933 29.4989 24.331 29.3939L25.9897 28.8792L24.7657 25.2792C24.5088 25.3123 24.2501 25.3301 23.991 25.3326C22.5365 25.3295 21.1228 24.8509 19.9656 23.9696C18.8084 23.0883 17.9712 21.8527 17.5817 20.4512L17.4124 19.9512L18.7457 15.9979H30.1337L30.4004 16.8072C30.823 18.243 30.7454 19.7798 30.1802 21.1657C29.615 22.5516 28.5959 23.7044 27.2897 24.4352L28.531 28.0846L30.2644 27.5512C30.6021 27.4462 30.9677 27.4796 31.2807 27.6442C31.5938 27.8087 31.8287 28.0909 31.9337 28.4286C32.0387 28.7663 32.0053 29.1319 31.8408 29.4449C31.6762 29.758 31.3941 29.9929 31.0564 30.0979L31.067 30.0952ZM19.5417 13.3339H29.231L27.943 9.50989C27.6338 8.5133 26.95 7.67548 26.0357 7.17267C25.1213 6.66987 24.0476 6.54125 23.0404 6.81389L18.3417 8.12322C18.5324 8.365 18.7066 8.61935 18.863 8.88456C19.6051 10.2418 19.8454 11.8171 19.5417 13.3339ZM14.0964 8.24589L8.95904 6.81389C7.95913 6.53808 6.89125 6.66037 5.97959 7.15511C5.06793 7.64985 4.3834 8.47855 4.06971 9.46723L2.77104 13.3339H16.8257L16.8524 13.2552C17.0063 12.7454 17.0568 12.21 17.0011 11.6804C16.9453 11.1508 16.7844 10.6376 16.5277 10.1711C16.271 9.70448 15.9237 9.29385 15.5062 8.96327C15.0887 8.63268 14.6094 8.38879 14.0964 8.24589ZM1.58037 16.8766C1.17506 18.3098 1.26584 19.8379 1.83798 21.2131C2.41012 22.5882 3.43006 23.7298 4.73237 24.4526L3.47371 28.0899L1.73371 27.5486C1.56649 27.496 1.39056 27.477 1.21597 27.4924C1.04138 27.5079 0.87155 27.5576 0.716166 27.6387C0.560783 27.7198 0.422894 27.8307 0.310373 27.9651C0.197852 28.0994 0.112902 28.2547 0.0603728 28.4219C0.0078441 28.5891 -0.0112346 28.765 0.0042262 28.9396C0.019687 29.1142 0.0693843 29.284 0.150481 29.4394C0.231577 29.5948 0.342485 29.7327 0.476871 29.8452C0.611257 29.9577 0.76649 30.0427 0.933706 30.0952L6.87771 31.9406C7.21542 32.0456 7.58101 32.0122 7.89407 31.8476C8.20714 31.6831 8.44201 31.4009 8.54704 31.0632C8.65207 30.7255 8.61864 30.3599 8.4541 30.0469C8.28957 29.7338 8.00741 29.4989 7.66971 29.3939L6.02171 28.8806L7.26837 25.2806C7.51562 25.3123 7.76446 25.3301 8.01371 25.3339C9.45526 25.3303 10.8568 24.8596 12.0083 23.9923C13.1597 23.125 13.999 21.9078 14.4004 20.5232L15.927 16.0006H1.87504L1.58037 16.8766ZM20.7377 5.20056C20.8951 5.27971 21.0667 5.32687 21.2424 5.33932C21.4182 5.35178 21.5947 5.32927 21.7617 5.2731C21.9287 5.21694 22.0829 5.12823 22.2154 5.01211C22.3479 4.89598 22.4561 4.75474 22.5337 4.59656L23.867 1.92989C24.0251 1.6134 24.051 1.24708 23.939 0.911512C23.8269 0.575947 23.5862 0.298626 23.2697 0.140557C22.9532 -0.017512 22.5869 -0.0433811 22.2513 0.0686407C21.9158 0.180662 21.6384 0.421399 21.4804 0.73789L20.147 3.40456C20.0674 3.56117 20.0195 3.73198 20.0061 3.90717C19.9928 4.08235 20.0141 4.25845 20.069 4.42535C20.1239 4.59225 20.2112 4.74665 20.326 4.87969C20.4407 5.01273 20.5807 5.12177 20.7377 5.20056ZM9.47371 4.59656C9.63177 4.91393 9.90945 5.15552 10.2456 5.26816C10.4121 5.32394 10.5879 5.34638 10.7631 5.33421C10.9382 5.32204 11.1092 5.27549 11.2664 5.19722C11.4235 5.11896 11.5637 5.0105 11.6789 4.87805C11.7942 4.74561 11.8822 4.59176 11.938 4.42529C11.9938 4.25883 12.0162 4.08301 12.004 3.90787C11.9919 3.73273 11.9453 3.56171 11.867 3.40456L10.5337 0.73789C10.4554 0.58118 10.3471 0.441419 10.2148 0.326589C10.0825 0.211759 9.92891 0.124108 9.76275 0.0686407C9.42719 -0.0433811 9.06086 -0.017512 8.74437 0.140557C8.42788 0.298626 8.18715 0.575947 8.07512 0.911512C7.9631 1.24708 7.98897 1.6134 8.14704 1.92989L9.47371 4.59656ZM16.0004 0.000557054C15.6468 0.000557054 15.3076 0.141033 15.0576 0.391081C14.8075 0.64113 14.667 0.980269 14.667 1.33389V4.00056C14.667 4.35418 14.8075 4.69332 15.0576 4.94337C15.3076 5.19342 15.6468 5.33389 16.0004 5.33389C16.354 5.33389 16.6931 5.19342 16.9432 4.94337C17.1932 4.69332 17.3337 4.35418 17.3337 4.00056V1.33389C17.3337 0.980269 17.1932 0.64113 16.9432 0.391081C16.6931 0.141033 16.354 0.000557054 16.0004 0.000557054Z" fill="#3E48A8"/>
</g>
<defs>
<clipPath id="clip0_1_3836">
<rect width="32" height="32" fill="white"/>
</clipPath>
</defs>
</svg>
