<svg width="19" height="20" viewBox="0 0 19 20" fill="none" xmlns="http://www.w3.org/2000/svg">
<g id="Instagram 1" clip-path="url(#clip0_1_3667)">
<g id="Clip path group">
<mask id="mask0_1_3667" style="mask-type:luminance" maskUnits="userSpaceOnUse" x="0" y="0" width="19" height="20">
<g id="clip0_66_5">
<path id="Vector" d="M18.6858 0.71875H0.123901V19.2807H18.6858V0.71875Z" fill="white"/>
</g>
</mask>
<g mask="url(#mask0_1_3667)">
<g id="Group">
<path id="Vector_2" d="M9.40487 2.39087C11.8829 2.39087 12.1768 2.40015 13.1551 2.44501C14.1668 2.49141 15.2086 2.72189 15.9456 3.45896C16.6897 4.20298 16.9132 5.2347 16.9596 6.24944C17.0044 7.22779 17.0137 7.5217 17.0137 9.99972C17.0137 12.4777 17.0044 12.7716 16.9596 13.75C16.9139 14.7562 16.6781 15.808 15.9456 16.5405C15.2016 17.2845 14.1706 17.508 13.1551 17.5544C12.1768 17.5993 11.8829 17.6086 9.40487 17.6086C6.92685 17.6086 6.63294 17.5993 5.6546 17.5544C4.65609 17.5088 3.59034 17.2675 2.86411 16.5405C2.12395 15.8003 1.89657 14.7585 1.85016 13.75C1.8053 12.7716 1.79602 12.4777 1.79602 9.99972C1.79602 7.5217 1.8053 7.22779 1.85016 6.24944C1.89579 5.2471 2.134 4.18906 2.86411 3.45896C3.60658 2.71648 4.64217 2.49141 5.6546 2.44501C6.63294 2.40015 6.92685 2.39087 9.40487 2.39087ZM9.40487 0.71875C6.88432 0.71875 6.56797 0.729578 5.57803 0.774436C4.14332 0.840176 2.7187 1.23926 1.68156 2.2764C0.640543 3.31742 0.245327 4.73897 0.179587 6.17288C0.134729 7.16282 0.123901 7.47917 0.123901 9.99972C0.123901 12.5203 0.134729 12.8366 0.179587 13.8266C0.245327 15.2597 0.645956 16.6882 1.68156 17.723C2.7218 18.7633 4.14564 19.1593 5.57803 19.225C6.56797 19.2698 6.88432 19.2807 9.40487 19.2807C11.9254 19.2807 12.2418 19.2698 13.2317 19.225C14.6656 19.1593 16.0918 18.7594 17.1282 17.723C18.17 16.6813 18.5644 15.2605 18.6301 13.8266C18.675 12.8366 18.6858 12.5203 18.6858 9.99972C18.6858 7.47917 18.675 7.16282 18.6301 6.17288C18.5644 4.73817 18.1645 3.31278 17.1282 2.2764C16.0895 1.23771 14.6618 0.839403 13.2317 0.774436C12.2418 0.729578 11.9254 0.71875 9.40487 0.71875Z" fill="white"/>
<path id="Vector_3" d="M9.40481 5.23438C6.7729 5.23438 4.63904 7.36824 4.63904 10.0002C4.63904 12.6321 6.7729 14.7659 9.40481 14.7659C12.0367 14.7659 14.1706 12.6321 14.1706 10.0002C14.1706 7.36824 12.0367 5.23438 9.40481 5.23438ZM9.40481 13.0938C7.69636 13.0938 6.31117 11.7086 6.31117 10.0002C6.31117 8.29169 7.69636 6.90651 9.40481 6.90651C11.1133 6.90651 12.4985 8.29169 12.4985 10.0002C12.4985 11.7086 11.1133 13.0938 9.40481 13.0938Z" fill="white"/>
<path id="Vector_4" d="M14.3593 6.15908C14.9744 6.15908 15.473 5.66045 15.473 5.04537C15.473 4.43025 14.9744 3.93164 14.3593 3.93164C13.7442 3.93164 13.2456 4.43025 13.2456 5.04537C13.2456 5.66045 13.7442 6.15908 14.3593 6.15908Z" fill="white"/>
</g>
</g>
</g>
</g>
<defs>
<clipPath id="clip0_1_3667">
<rect width="18.5619" height="18.5619" fill="white" transform="translate(0.123901 0.71875)"/>
</clipPath>
</defs>
</svg>
