<svg width="32" height="32" viewBox="0 0 32 32" fill="none" xmlns="http://www.w3.org/2000/svg">
<g id="ranking-podium 1" clip-path="url(#clip0_1_3812)">
<path id="Vector" d="M29.3343 15.3329C29.3343 14.9662 29.0356 14.6662 28.6676 14.6662H28.0009C27.2649 14.6662 26.6676 14.0702 26.6676 13.3329C26.6676 12.5956 27.2649 11.9996 28.0009 11.9996C28.3689 11.9996 28.6676 11.6996 28.6676 11.3329C28.6676 10.9662 28.3689 10.6662 28.0009 10.6662H25.3343C24.5983 10.6662 24.0009 10.0702 24.0009 9.33289C24.0009 8.59556 24.5983 7.99956 25.3343 7.99956H28.0009C29.8383 7.99956 31.3343 9.49422 31.3343 11.3329C31.3343 11.8982 31.1916 12.4316 30.9423 12.8996C31.5929 13.5076 32.0009 14.3729 32.0009 15.3329C32.0009 17.1716 30.5049 18.6662 28.6676 18.6662H25.3343C24.5983 18.6662 24.0009 18.0702 24.0009 17.3329C24.0009 16.5956 24.5983 15.9996 25.3343 15.9996H28.6676C29.0356 15.9996 29.3343 15.6996 29.3343 15.3329ZM2.3436 10.2062C1.9116 10.4396 1.50893 10.6569 1.1756 10.8596C0.254262 11.4209 -0.181738 12.3609 0.0689288 13.2529C0.308929 14.1116 1.12493 14.6662 2.14493 14.6662H6.66759C7.40359 14.6662 8.00093 14.0702 8.00093 13.3329C8.00093 12.5956 7.40359 11.9996 6.66759 11.9996H4.61693C6.31159 11.0329 8.00093 9.81822 8.00093 7.99956C8.00093 5.79422 6.20626 3.99956 4.00093 3.99956C1.7956 3.99956 0.000928779 5.79422 0.000928779 7.99956C0.000928779 8.73689 0.598262 9.33289 1.33426 9.33289C2.07026 9.33289 2.6676 8.73689 2.6676 7.99956C2.6676 7.26222 3.26626 6.66622 4.00093 6.66622C4.7356 6.66622 5.33426 7.26356 5.33426 7.99956C5.33426 8.59156 3.0836 9.80622 2.3436 10.2062ZM14.2769 4.10622L14.6676 3.71556V9.33289C14.6676 10.0702 15.2649 10.6662 16.0009 10.6662C16.7369 10.6662 17.3343 10.0702 17.3343 9.33289V1.92622C17.3343 1.14489 16.8676 0.447557 16.1463 0.147557C15.4236 -0.15111 14.5996 0.0115569 14.0476 0.563557L12.3916 2.21956C11.8703 2.74089 11.8703 3.58356 12.3916 4.10489C12.9129 4.62622 13.7569 4.62756 14.2769 4.10622ZM17.3343 13.3329H14.6676C12.8263 13.3329 11.3343 14.8249 11.3343 16.6662V28.6662C11.3343 30.5076 12.8263 31.9996 14.6676 31.9996H17.3343C19.1756 31.9996 20.6676 30.5076 20.6676 28.6662V16.6662C20.6676 14.8249 19.1756 13.3329 17.3343 13.3329ZM28.6676 21.3329H26.6676C24.8263 21.3329 23.3343 22.8249 23.3343 24.6662V28.6662C23.3343 30.5076 24.8263 31.9996 26.6676 31.9996H28.6676C30.5089 31.9996 32.0009 30.5076 32.0009 28.6662V24.6662C32.0009 22.8249 30.5089 21.3329 28.6676 21.3329ZM5.33426 17.3329H3.33426C1.49293 17.3329 0.000928779 18.8249 0.000928779 20.6662V28.6662C0.000928779 30.5076 1.49293 31.9996 3.33426 31.9996H5.33426C7.1756 31.9996 8.66759 30.5076 8.66759 28.6662V20.6662C8.66759 18.8249 7.1756 17.3329 5.33426 17.3329Z" fill="white"/>
</g>
<defs>
<clipPath id="clip0_1_3812">
<rect width="32" height="32" fill="white"/>
</clipPath>
</defs>
</svg>
