<svg width="32" height="32" viewBox="0 0 32 32" fill="none" xmlns="http://www.w3.org/2000/svg">
<g id="restaurant 1" clip-path="url(#clip0_1_3820)">
<path id="Vector" d="M31.6387 29.7522C31.8811 30.01 32.0111 30.3535 32.0003 30.7072C31.9894 31.0609 31.8385 31.3958 31.5807 31.6382C31.3229 31.8806 30.9793 32.0107 30.6257 31.9998C30.272 31.9889 29.9371 31.838 29.6947 31.5802L22.384 23.7949C21.0027 23.8389 14.6413 24.0282 16.6347 21.0215C16.8015 20.8519 17.0114 20.7308 17.2418 20.6711C17.4722 20.6115 17.7144 20.6155 17.9427 20.6829C19.4332 21.1452 21.0066 21.2772 22.5533 21.0695C22.8206 21.0353 23.0922 21.0658 23.3452 21.1587C23.5981 21.2515 23.825 21.4039 24.0067 21.6029L31.6387 29.7522ZM20 18.6669C20.8755 18.6681 21.7426 18.4966 22.5516 18.1621C23.3606 17.8276 24.0957 17.3367 24.7147 16.7176L31.6093 9.82155C31.7333 9.69776 31.8317 9.55076 31.8988 9.38895C31.966 9.22714 32.0006 9.05369 32.0007 8.87849C32.0009 8.7033 31.9665 8.5298 31.8996 8.36789C31.8326 8.20599 31.7345 8.05885 31.6107 7.93488C31.4869 7.81092 31.3399 7.71254 31.1781 7.64539C31.0163 7.57823 30.8428 7.5436 30.6676 7.54348C30.4924 7.54335 30.3189 7.57774 30.157 7.64466C29.9951 7.71159 29.848 7.80976 29.724 7.93355L22.8293 14.8295C22.2438 15.41 21.4932 15.7953 20.6803 15.9328C19.8674 16.0702 19.0318 15.9532 18.288 15.5975L27.6093 6.27622C27.7367 6.15322 27.8383 6.00609 27.9081 5.84342C27.978 5.68075 28.0148 5.50579 28.0163 5.32875C28.0179 5.15171 27.9841 4.97614 27.9171 4.81228C27.8501 4.64842 27.7511 4.49955 27.6259 4.37436C27.5007 4.24917 27.3518 4.15016 27.1879 4.08312C27.0241 4.01608 26.8485 3.98234 26.6715 3.98388C26.4944 3.98542 26.3195 4.0222 26.1568 4.09208C25.9941 4.16196 25.847 4.26354 25.724 4.39088L16.4 13.7122C16.0444 12.9684 15.9273 12.1328 16.0648 11.3199C16.2023 10.507 16.5876 9.75641 17.168 9.17088L24.0667 2.27622C24.3095 2.02475 24.4439 1.68794 24.4409 1.33835C24.4379 0.988753 24.2976 0.654337 24.0504 0.407126C23.8032 0.159915 23.4688 0.0196899 23.1192 0.016652C22.7696 0.0136141 22.4328 0.148007 22.1813 0.390884L15.2853 7.28555C14.201 8.37357 13.5248 9.80205 13.3705 11.3304C13.2163 12.8587 13.5935 14.3935 14.4387 15.6762L0.390667 29.7242C0.147789 29.9757 0.0133967 30.3125 0.0164346 30.6621C0.0194725 31.0117 0.159698 31.3461 0.406909 31.5933C0.654119 31.8405 0.988536 31.9807 1.33813 31.9838C1.68773 31.9868 2.02453 31.8524 2.276 31.6095L16.324 17.5615C17.4145 18.2824 18.6928 18.6668 20 18.6669ZM7.26933 17.2869C8.37467 18.3282 9.39467 16.9456 10.1373 16.2055C10.4445 15.895 10.6707 15.5137 10.7961 15.0952C10.9214 14.6767 10.942 14.2339 10.856 13.8055C10.0333 11.5096 12.044 8.82955 10.38 6.98288L4.43867 0.764217C4.07218 0.408142 3.60943 0.167196 3.10755 0.0711278C2.60568 -0.0249404 2.08666 0.0280761 1.61458 0.223631C1.14249 0.419187 0.738018 0.748718 0.451089 1.17154C0.164161 1.59436 0.00734342 2.09195 0 2.60288C0.316 8.75488 2.58 11.8935 7.26933 17.2869Z" fill="#3E48A8"/>
</g>
<defs>
<clipPath id="clip0_1_3820">
<rect width="32" height="32" fill="white"/>
</clipPath>
</defs>
</svg>
