<svg width="20" height="16" viewBox="0 0 20 16" fill="none" xmlns="http://www.w3.org/2000/svg">
<g id="002-twitter">
<path id="Path" d="M17.7834 4.05319L17.7953 4.55979C17.7953 9.73292 13.8383 15.6928 6.60133 15.6928C4.38012 15.6928 2.31267 15.0452 0.570877 13.9346C0.878524 13.9704 1.19208 13.9902 1.50972 13.9902C3.35343 13.9902 5.0493 13.3644 6.3956 12.3155C4.67377 12.2837 3.22155 11.1513 2.7202 9.59784C2.96187 9.64352 3.20559 9.66541 3.46126 9.66541C3.82081 9.66541 4.16835 9.61973 4.49794 9.53033C2.69819 9.16875 1.3419 7.58943 1.3419 5.6942V5.64454C1.87322 5.93855 2.47846 6.11336 3.12365 6.13525C2.06896 5.43398 1.37383 4.23604 1.37383 2.87918C1.37383 2.16202 1.56761 1.49055 1.90515 0.912459C3.84473 3.28049 6.7451 4.83798 10.015 5.0009C9.94707 4.7148 9.91316 4.41484 9.91316 4.10894C9.91316 1.9495 11.6749 0.197266 13.8482 0.197266C14.9788 0.197266 16.0016 0.672035 16.7206 1.43291C17.6155 1.25607 18.4585 0.9303 19.2195 0.483304C18.9259 1.39716 18.3027 2.16398 17.4897 2.64868C18.2827 2.5553 19.0437 2.34272 19.7489 2.03282C19.2215 2.81552 18.5524 3.5049 17.7834 4.05319Z" fill="#0A142F"/>
</g>
</svg>
