<svg width="21" height="20" viewBox="0 0 21 20" fill="none" xmlns="http://www.w3.org/2000/svg">
<g id="004-vimeo-social-logo">
<g id="logo-instagram">
<path id="Combined Shape" d="M10.7489 0C13.4644 0 13.8055 0.0115114 14.8719 0.0595703C16.4968 0.133326 17.9244 0.529594 19.0701 1.66895C20.216 2.80853 20.6151 4.22858 20.6893 5.84473C20.7376 6.90547 20.7489 7.24454 20.7489 9.94531C20.7489 12.6459 20.7376 12.9854 20.6893 14.0459C20.6151 15.662 20.216 17.0821 19.0701 18.2217C17.9243 19.3612 16.4968 19.7573 14.8719 19.8311C13.8055 19.8791 13.4645 19.8906 10.7489 19.8906C8.03326 19.8906 7.69226 19.8791 6.62581 19.8311C5.00087 19.7573 3.57338 19.3612 2.42757 18.2217C1.28173 17.0821 0.882593 15.662 0.808426 14.0459C0.760111 12.9854 0.748856 12.6459 0.748856 9.94531C0.748856 7.24454 0.760098 6.90547 0.808426 5.84473C0.882593 4.22858 1.28173 2.80853 2.42757 1.66895C3.57335 0.529594 5.00096 0.133326 6.62581 0.0595703C7.69225 0.0115114 8.03327 0 10.7489 0ZM10.7479 1.79199C8.07796 1.79199 7.76102 1.80154 6.70686 1.84961C5.56863 1.90102 4.51247 2.12851 3.70003 2.93652C2.88772 3.74455 2.6599 4.79476 2.60823 5.92676C2.5599 6.97514 2.54964 7.29017 2.54964 9.94531C2.54964 12.6008 2.5599 12.9164 2.60823 13.9648C2.65993 15.0968 2.88766 16.1471 3.70003 16.9551C4.51246 17.7631 5.56864 17.9896 6.70686 18.041C7.76102 18.0891 8.07796 18.0996 10.7479 18.0996C13.4179 18.0996 13.7347 18.0891 14.7889 18.041C15.9272 17.9896 16.9833 17.7631 17.7957 16.9551C18.6081 16.1471 18.8358 15.0968 18.8875 13.9648C18.9359 12.9164 18.9461 12.6008 18.9461 9.94531C18.9461 7.29017 18.9359 6.97514 18.8875 5.92676C18.8359 4.79472 18.6081 3.74456 17.7957 2.93652C16.9832 2.12847 15.9272 1.901 14.7889 1.84961C13.7347 1.80154 13.4179 1.79199 10.7479 1.79199ZM10.7469 4.83789C13.5827 4.83789 15.8817 7.12494 15.8817 9.94531C15.8814 12.7655 13.5826 15.0518 10.7469 15.0518C7.91132 15.0516 5.61236 12.7654 5.61214 9.94531C5.61214 7.12501 7.91118 4.83801 10.7469 4.83789ZM10.7459 6.62988C8.90524 6.63005 7.41292 8.11462 7.41292 9.94531C7.41306 11.7759 8.90533 13.2596 10.7459 13.2598C12.5867 13.2598 14.0798 11.776 14.0799 9.94531C14.0799 8.11452 12.5868 6.62988 10.7459 6.62988ZM16.0858 3.44336C16.7484 3.44347 17.2859 3.9777 17.286 4.63672C17.286 5.29578 16.7484 5.82997 16.0858 5.83008C15.423 5.83008 14.8856 5.29585 14.8856 4.63672C14.8856 3.97764 15.4231 3.44336 16.0858 3.44336Z" fill="#0A142F"/>
</g>
</g>
</svg>
