<svg width="21" height="20" viewBox="0 0 21 20" fill="none" xmlns="http://www.w3.org/2000/svg">
<g id="bed 1" clip-path="url(#clip0_1_3736)">
<path id="Vector" d="M2.16667 11.667H20.5V18.3337H18.8333V15.8337H2.16667V18.3337H0.5V1.66699H2.16667V11.667ZM5.08333 10.0003C5.49538 10.0003 5.89817 9.87814 6.24077 9.64922C6.58337 9.4203 6.8504 9.09493 7.00808 8.71425C7.16576 8.33357 7.20702 7.91468 7.12664 7.51055C7.04625 7.10643 6.84783 6.73521 6.55647 6.44385C6.26511 6.15249 5.8939 5.95408 5.48977 5.87369C5.08564 5.7933 4.66676 5.83456 4.28608 5.99224C3.9054 6.14993 3.58002 6.41695 3.3511 6.75955C3.12219 7.10216 3 7.50495 3 7.91699C3 8.19058 3.05389 8.46149 3.15858 8.71425C3.26328 8.96701 3.41674 9.19668 3.61019 9.39013C4.0009 9.78083 4.5308 10.0003 5.08333 10.0003ZM18 5.00033H10.5C9.83696 5.00033 9.20107 5.26372 8.73223 5.73256C8.26339 6.2014 8 6.83728 8 7.50033V10.0003H20.5V7.50033C20.5 6.83728 20.2366 6.2014 19.7678 5.73256C19.2989 5.26372 18.663 5.00033 18 5.00033Z" fill="#606AC2"/>
</g>
<defs>
<clipPath id="clip0_1_3736">
<rect width="20" height="20" fill="white" transform="translate(0.5)"/>
</clipPath>
</defs>
</svg>
