<svg width="32" height="32" viewBox="0 0 32 32" fill="none" xmlns="http://www.w3.org/2000/svg">
<g id="building 1" clip-path="url(#clip0_1_3804)">
<path id="Vector" d="M12 0H6.66667C4.89856 0 3.20286 0.702379 1.95262 1.95262C0.702379 3.20286 0 4.89856 0 6.66667L0 25.3333C0 26.2088 0.172438 27.0757 0.50747 27.8846C0.842501 28.6934 1.33356 29.4283 1.95262 30.0474C3.20286 31.2976 4.89856 32 6.66667 32H18.6667V6.66667C18.6667 5.79119 18.4942 4.92428 18.1592 4.11544C17.8242 3.30661 17.3331 2.57168 16.714 1.95262C16.095 1.33356 15.3601 0.842501 14.5512 0.50747C13.7424 0.172438 12.8755 0 12 0ZM6.66667 25.3333H5.33333C4.97971 25.3333 4.64057 25.1929 4.39052 24.9428C4.14048 24.6928 4 24.3536 4 24C4 23.6464 4.14048 23.3072 4.39052 23.0572C4.64057 22.8071 4.97971 22.6667 5.33333 22.6667H6.66667C7.02029 22.6667 7.35943 22.8071 7.60948 23.0572C7.85952 23.3072 8 23.6464 8 24C8 24.3536 7.85952 24.6928 7.60948 24.9428C7.35943 25.1929 7.02029 25.3333 6.66667 25.3333ZM6.66667 20H5.33333C4.97971 20 4.64057 19.8595 4.39052 19.6095C4.14048 19.3594 4 19.0203 4 18.6667C4 18.313 4.14048 17.9739 4.39052 17.7239C4.64057 17.4738 4.97971 17.3333 5.33333 17.3333H6.66667C7.02029 17.3333 7.35943 17.4738 7.60948 17.7239C7.85952 17.9739 8 18.313 8 18.6667C8 19.0203 7.85952 19.3594 7.60948 19.6095C7.35943 19.8595 7.02029 20 6.66667 20ZM6.66667 14.6667H5.33333C4.97971 14.6667 4.64057 14.5262 4.39052 14.2761C4.14048 14.0261 4 13.687 4 13.3333C4 12.9797 4.14048 12.6406 4.39052 12.3905C4.64057 12.1405 4.97971 12 5.33333 12H6.66667C7.02029 12 7.35943 12.1405 7.60948 12.3905C7.85952 12.6406 8 12.9797 8 13.3333C8 13.687 7.85952 14.0261 7.60948 14.2761C7.35943 14.5262 7.02029 14.6667 6.66667 14.6667ZM6.66667 9.33333H5.33333C4.97971 9.33333 4.64057 9.19286 4.39052 8.94281C4.14048 8.69276 4 8.35362 4 8C4 7.64638 4.14048 7.30724 4.39052 7.05719C4.64057 6.80714 4.97971 6.66667 5.33333 6.66667H6.66667C7.02029 6.66667 7.35943 6.80714 7.60948 7.05719C7.85952 7.30724 8 7.64638 8 8C8 8.35362 7.85952 8.69276 7.60948 8.94281C7.35943 9.19286 7.02029 9.33333 6.66667 9.33333ZM13.3333 25.3333H12C11.6464 25.3333 11.3072 25.1929 11.0572 24.9428C10.8071 24.6928 10.6667 24.3536 10.6667 24C10.6667 23.6464 10.8071 23.3072 11.0572 23.0572C11.3072 22.8071 11.6464 22.6667 12 22.6667H13.3333C13.687 22.6667 14.0261 22.8071 14.2761 23.0572C14.5262 23.3072 14.6667 23.6464 14.6667 24C14.6667 24.3536 14.5262 24.6928 14.2761 24.9428C14.0261 25.1929 13.687 25.3333 13.3333 25.3333ZM13.3333 20H12C11.6464 20 11.3072 19.8595 11.0572 19.6095C10.8071 19.3594 10.6667 19.0203 10.6667 18.6667C10.6667 18.313 10.8071 17.9739 11.0572 17.7239C11.3072 17.4738 11.6464 17.3333 12 17.3333H13.3333C13.687 17.3333 14.0261 17.4738 14.2761 17.7239C14.5262 17.9739 14.6667 18.313 14.6667 18.6667C14.6667 19.0203 14.5262 19.3594 14.2761 19.6095C14.0261 19.8595 13.687 20 13.3333 20ZM13.3333 14.6667H12C11.6464 14.6667 11.3072 14.5262 11.0572 14.2761C10.8071 14.0261 10.6667 13.687 10.6667 13.3333C10.6667 12.9797 10.8071 12.6406 11.0572 12.3905C11.3072 12.1405 11.6464 12 12 12H13.3333C13.687 12 14.0261 12.1405 14.2761 12.3905C14.5262 12.6406 14.6667 12.9797 14.6667 13.3333C14.6667 13.687 14.5262 14.0261 14.2761 14.2761C14.0261 14.5262 13.687 14.6667 13.3333 14.6667ZM13.3333 9.33333H12C11.6464 9.33333 11.3072 9.19286 11.0572 8.94281C10.8071 8.69276 10.6667 8.35362 10.6667 8C10.6667 7.64638 10.8071 7.30724 11.0572 7.05719C11.3072 6.80714 11.6464 6.66667 12 6.66667H13.3333C13.687 6.66667 14.0261 6.80714 14.2761 7.05719C14.5262 7.30724 14.6667 7.64638 14.6667 8C14.6667 8.35362 14.5262 8.69276 14.2761 8.94281C14.0261 9.19286 13.687 9.33333 13.3333 9.33333ZM25.3333 6.66667H21.3333V32H25.3333C27.1008 31.9979 28.7953 31.2948 30.045 30.045C31.2948 28.7953 31.9979 27.1008 32 25.3333V13.3333C31.9979 11.5659 31.2948 9.87141 30.045 8.62163C28.7953 7.37184 27.1008 6.66878 25.3333 6.66667ZM26.6667 25.3333C26.403 25.3333 26.1452 25.2551 25.9259 25.1086C25.7066 24.9621 25.5357 24.7539 25.4348 24.5102C25.3339 24.2666 25.3075 23.9985 25.359 23.7399C25.4104 23.4812 25.5374 23.2437 25.7239 23.0572C25.9103 22.8707 26.1479 22.7437 26.4065 22.6923C26.6652 22.6408 26.9333 22.6672 27.1769 22.7682C27.4205 22.8691 27.6288 23.04 27.7753 23.2592C27.9218 23.4785 28 23.7363 28 24C28 24.3536 27.8595 24.6928 27.6095 24.9428C27.3594 25.1929 27.0203 25.3333 26.6667 25.3333ZM26.6667 20C26.403 20 26.1452 19.9218 25.9259 19.7753C25.7066 19.6288 25.5357 19.4205 25.4348 19.1769C25.3339 18.9333 25.3075 18.6652 25.359 18.4065C25.4104 18.1479 25.5374 17.9103 25.7239 17.7239C25.9103 17.5374 26.1479 17.4104 26.4065 17.359C26.6652 17.3075 26.9333 17.3339 27.1769 17.4348C27.4205 17.5357 27.6288 17.7066 27.7753 17.9259C27.9218 18.1452 28 18.403 28 18.6667C28 19.0203 27.8595 19.3594 27.6095 19.6095C27.3594 19.8595 27.0203 20 26.6667 20ZM26.6667 14.6667C26.403 14.6667 26.1452 14.5885 25.9259 14.442C25.7066 14.2955 25.5357 14.0872 25.4348 13.8436C25.3339 13.5999 25.3075 13.3319 25.359 13.0732C25.4104 12.8146 25.5374 12.577 25.7239 12.3905C25.9103 12.2041 26.1479 12.0771 26.4065 12.0256C26.6652 11.9742 26.9333 12.0006 27.1769 12.1015C27.4205 12.2024 27.6288 12.3733 27.7753 12.5926C27.9218 12.8118 28 13.0696 28 13.3333C28 13.687 27.8595 14.0261 27.6095 14.2761C27.3594 14.5262 27.0203 14.6667 26.6667 14.6667Z" fill="#3E48A8"/>
</g>
<defs>
<clipPath id="clip0_1_3804">
<rect width="32" height="32" fill="white"/>
</clipPath>
</defs>
</svg>
