<svg width="32" height="32" viewBox="0 0 32 32" fill="none" xmlns="http://www.w3.org/2000/svg">
<g id="candle-lotus-yoga 1" clip-path="url(#clip0_1_3828)">
<path id="Vector" d="M11.0553 4.94533C11.0553 6.632 9.68732 8 8.00065 8C6.31399 8 4.94599 6.632 4.94599 4.94533C4.94599 3.97067 5.96732 2.08133 6.82865 0.66C7.36198 -0.22 8.63932 -0.22 9.17265 0.66C10.034 2.08 11.0553 3.96933 11.0553 4.94533ZM19.986 32C26.162 32 31.3407 28.66 31.994 21.5307C32.074 20.6653 31.3367 19.9253 30.4727 20.0227C24.606 20.6867 19.9847 25.12 19.9847 32M19.9847 32C13.8087 32 8.65932 28.6413 8.00465 21.512C7.92465 20.6467 8.66199 19.9067 9.52598 20.004C15.3927 20.668 19.9847 25.12 19.9847 32ZM15.506 19.1493C16.026 16.708 17.1407 14.6667 18.802 12.568C19.4033 11.808 20.5607 11.808 21.162 12.568C22.8367 14.6827 23.9567 16.7387 24.4873 19.1613C22.6847 20.16 21.1607 21.516 19.9913 23.1667C18.826 21.5107 17.3047 20.152 15.506 19.1493ZM5.34865 21.7533C5.23665 20.5333 5.67665 19.34 6.55399 18.4813C7.42465 17.628 8.61532 17.2147 9.82465 17.352C10.9487 17.4787 12.018 17.7133 13.0233 18.0467C13.4433 16.3573 14.1553 14.7533 15.1567 13.1427C14.21 11.656 12.558 10.664 10.6647 10.664H5.33132C2.38599 10.664 -0.00201416 13.052 -0.00201416 15.9973V26.664C-0.00201416 29.6093 2.38599 31.9973 5.33132 31.9973H10.6647C10.7513 31.9973 10.8327 31.976 10.9193 31.972C7.77132 29.7267 5.75532 26.1853 5.34865 21.7533Z" fill="#3E48A8"/>
</g>
<defs>
<clipPath id="clip0_1_3828">
<rect width="32" height="32" fill="white"/>
</clipPath>
</defs>
</svg>
