<svg width="32" height="32" viewBox="0 0 32 32" fill="none" xmlns="http://www.w3.org/2000/svg">
<g id="gym 1" clip-path="url(#clip0_1_3844)">
<path id="Vector" d="M30.5904 9.11607L27.6811 6.2054L28.9438 4.94273C29.0711 4.81974 29.1727 4.67261 29.2426 4.50994C29.3125 4.34727 29.3492 4.17231 29.3508 3.99527C29.3523 3.81823 29.3186 3.64266 29.2515 3.47879C29.1845 3.31493 29.0855 3.16606 28.9603 3.04087C28.8351 2.91568 28.6862 2.81668 28.5224 2.74964C28.3585 2.6826 28.183 2.64886 28.0059 2.6504C27.8289 2.65194 27.6539 2.68872 27.4912 2.7586C27.3286 2.82848 27.1814 2.93005 27.0584 3.0574L25.7958 4.32007L22.8851 1.41073C21.9677 0.536496 20.749 0.0488281 19.4818 0.0488281C18.2145 0.0488281 16.9959 0.536496 16.0784 1.41073C15.6312 1.85762 15.2764 2.38827 15.0343 2.97234C14.7922 3.55642 14.6676 4.18248 14.6676 4.81473C14.6676 5.44699 14.7922 6.07304 15.0343 6.65712C15.2764 7.2412 15.6312 7.77185 16.0784 8.21873L18.9878 11.1281L11.1291 18.9867L8.21845 16.0774C7.30103 15.2032 6.08237 14.7155 4.81511 14.7155C3.54786 14.7155 2.3292 15.2032 1.41178 16.0774C0.964526 16.5243 0.609722 17.0549 0.367648 17.639C0.125574 18.2231 0.000976563 18.8491 0.000976562 19.4814C0.000976563 20.1137 0.125574 20.7397 0.367648 21.3238C0.609722 21.9079 0.964526 22.4385 1.41178 22.8854L4.32112 25.7947L3.05845 27.0574C2.9311 27.1804 2.82953 27.3275 2.75965 27.4902C2.68977 27.6529 2.65299 27.8278 2.65145 28.0049C2.64991 28.1819 2.68365 28.3575 2.75069 28.5213C2.81773 28.6852 2.91673 28.8341 3.04192 28.9593C3.16711 29.0844 3.31598 29.1835 3.47984 29.2505C3.6437 29.3175 3.81928 29.3513 3.99632 29.3497C4.17336 29.3482 4.34832 29.3114 4.51099 29.2415C4.67366 29.1717 4.82079 29.0701 4.94378 28.9427L6.20645 27.6801L9.11712 30.5894C9.56398 31.0365 10.0945 31.3911 10.6785 31.633C11.2624 31.875 11.8884 31.9995 12.5204 31.9995C13.1525 31.9995 13.7784 31.875 14.3624 31.633C14.9464 31.3911 15.4769 31.0365 15.9238 30.5894C16.371 30.1426 16.7258 29.6121 16.9678 29.0281C17.2099 28.4442 17.3345 27.8182 17.3345 27.1861C17.3345 26.5539 17.2099 25.928 16.9678 25.344C16.7258 24.76 16.371 24.2295 15.9238 23.7827L13.0144 20.8734L20.8811 13.0134L23.7904 15.9227C24.2373 16.3698 24.7679 16.7244 25.3518 16.9664C25.9358 17.2083 26.5617 17.3329 27.1938 17.3329C27.8259 17.3329 28.4518 17.2083 29.0357 16.9664C29.6197 16.7244 30.1503 16.3698 30.5971 15.9227C31.0443 15.476 31.3991 14.9454 31.6412 14.3615C31.8832 13.7775 32.0078 13.1515 32.0078 12.5194C32.0078 11.8873 31.8832 11.2613 31.6412 10.6773C31.3991 10.0934 31.0443 9.56284 30.5971 9.11607H30.5904Z" fill="#3E48A8"/>
</g>
<defs>
<clipPath id="clip0_1_3844">
<rect width="32" height="32" fill="white"/>
</clipPath>
</defs>
</svg>
