<svg width="19" height="20" viewBox="0 0 19 20" fill="none" xmlns="http://www.w3.org/2000/svg">
<g id="Twitter 1" clip-path="url(#clip0_1_3655)">
<g id="Clip path group">
<mask id="mask0_1_3655" style="mask-type:luminance" maskUnits="userSpaceOnUse" x="-1" y="0" width="20" height="20">
<g id="clip0_66_10">
<path id="Vector" d="M18.561 0.71875H-0.000976562V19.2807H18.561V0.71875Z" fill="white"/>
</g>
</mask>
<g mask="url(#mask0_1_3655)">
<g id="Group">
<path id="Vector_2" d="M16.6607 6.2134C16.6715 6.37658 16.6715 6.54055 16.6715 6.70529C16.6715 11.7379 12.84 17.5408 5.83599 17.5408V17.5377C3.7671 17.5408 1.74075 16.9484 -0.000976562 15.8308C0.299882 15.8672 0.602286 15.8849 0.905466 15.8857C2.6209 15.8872 4.28683 15.3118 5.63489 14.2523C4.00532 14.2213 2.57604 13.1586 2.07719 11.6072C2.64797 11.717 3.23576 11.6946 3.7965 11.5422C2.01918 11.1834 0.741501 9.62184 0.741501 7.80897C0.741501 7.79272 0.741501 7.77648 0.741501 7.761C1.27129 8.05643 1.86373 8.21965 2.47008 8.23741C0.796415 7.11985 0.279773 4.89394 1.29063 3.15377C3.22416 5.53281 6.0773 6.97908 9.13922 7.13298C8.83218 5.81044 9.25215 4.42449 10.2406 3.49407C11.7743 2.05166 14.1865 2.12591 15.6289 3.65959C16.482 3.49175 17.2995 3.17852 18.0474 2.73535C17.7628 3.61705 17.1681 4.36573 16.373 4.84214C17.1286 4.75165 17.8656 4.54979 18.561 4.24197C18.0497 5.00687 17.4062 5.67434 16.6607 6.2134Z" fill="white"/>
</g>
</g>
</g>
</g>
<defs>
<clipPath id="clip0_1_3655">
<rect width="18.5619" height="18.5619" fill="white" transform="translate(0 0.71875)"/>
</clipPath>
</defs>
</svg>
